<?xml version="1.0" standalone="no"?><svg xmlns="http://www.w3.org/2000/svg" viewBox="0 0 1440 320"><path fill="#3d963f" fill-opacity="1" d="M0,128L48,122.7C96,117,192,107,288,117.3C384,128,480,160,576,192C672,224,768,256,864,261.3C960,267,1056,245,1152,240C1248,235,1344,245,1392,250.7L1440,256L1440,320L1392,320C1344,320,1248,320,1152,320C1056,320,960,320,864,320C768,320,672,320,576,320C480,320,384,320,288,320C192,320,96,320,48,320L0,320Z" data-darkreader-inline-fill="" style="--darkreader-inline-fill: #3f7639;"></path></svg>